<svg width="72" height="72" viewBox="0 0 72 72" fill="none" xmlns="http://www.w3.org/2000/svg">
<path d="M61.5 15H37.5V57H61.5C62.3295 57 63 56.3295 63 55.5V16.5C63 15.6705 62.3295 15 61.5 15Z" fill="#4CAF50"/>
<path d="M48 22.5H58.5V27H48V22.5ZM48 37.5H58.5V42H48V37.5ZM48 45H58.5V49.5H48V45ZM48 30H58.5V34.5H48V30ZM37.5 22.5H45V27H37.5V22.5ZM37.5 37.5H45V42H37.5V37.5ZM37.5 45H45V49.5H37.5V45ZM37.5 30H45V34.5H37.5V30Z" fill="white"/>
<path d="M40.5 63L9 57V15L40.5 9V63Z" fill="#2E7D32"/>
<path d="M28.6938 46.5L25.0773 39.6585C24.9393 39.402 24.7983 38.934 24.6513 38.2515H24.5958C24.5268 38.574 24.3648 39.063 24.1098 39.72L20.4783 46.5H14.8428L21.5358 35.9985L15.4113 25.5H21.1668L24.1683 31.794C24.4023 32.2905 24.6123 32.8815 24.7983 33.5625H24.8583C24.9753 33.156 25.1943 32.5425 25.5168 31.7325L28.8558 25.5H34.1283L27.8298 35.9085L34.3038 46.497H28.6938V46.5Z" fill="white"/>
</svg>
