<svg width="24" height="24" viewBox="0 0 24 24" fill="none" xmlns="http://www.w3.org/2000/svg">
<path d="M18.3536 4.35355C18.5488 4.15829 18.5488 3.84171 18.3536 3.64645C18.1583 3.45118 17.8417 3.45118 17.6464 3.64645L18.3536 4.35355ZM12 10L11.6464 9.64645L11.2929 10L11.6464 10.3536L12 10ZM17.6464 16.3536C17.8417 16.5488 18.1583 16.5488 18.3536 16.3536C18.5488 16.1583 18.5488 15.8417 18.3536 15.6464L17.6464 16.3536ZM17.6464 3.64645L11.6464 9.64645L12.3536 10.3536L18.3536 4.35355L17.6464 3.64645ZM11.6464 10.3536L17.6464 16.3536L18.3536 15.6464L12.3536 9.64645L11.6464 10.3536Z" fill="black"/>
</svg>
