<svg width="529" height="107" viewBox="0 0 529 107" fill="none" xmlns="http://www.w3.org/2000/svg">
<path d="M18.0023 105L0.902344 7.49999H27.3023L32.7023 50.1C33.2023 55.2 33.7523 60.3 34.3523 65.4C34.9523 70.5 35.5023 75.6 36.0023 80.7H36.6023C37.5023 75.6 38.4023 70.5 39.3023 65.4C40.2023 60.2 41.1023 55.1 42.0023 50.1L51.3023 7.49999H72.9023L82.2024 50.1C83.1024 55 84.0024 60.05 84.9024 65.25C85.8024 70.35 86.7023 75.5 87.6023 80.7H88.2023C88.7023 75.5 89.2523 70.35 89.8524 65.25C90.4523 60.05 91.0023 55 91.5023 50.1L96.9023 7.49999H121.502L105.302 105H72.6023L65.1023 66.3C64.4023 62.5 63.7523 58.65 63.1523 54.75C62.5523 50.85 62.0023 47.1 61.5023 43.5H60.9023C60.4023 47.1 59.8523 50.85 59.2523 54.75C58.7523 58.65 58.1023 62.5 57.3023 66.3L50.1023 105H18.0023ZM166.535 106.8C159.235 106.8 152.635 105.25 146.735 102.15C140.935 99.05 136.335 94.6 132.935 88.8C129.535 82.9 127.835 75.8 127.835 67.5C127.835 59.4 129.535 52.45 132.935 46.65C136.435 40.75 140.935 36.2 146.435 33C151.935 29.8 157.735 28.2 163.835 28.2C171.235 28.2 177.335 29.85 182.135 33.15C187.035 36.35 190.635 40.7 192.935 46.2C195.335 51.7 196.535 57.8 196.535 64.5C196.535 66.7 196.385 68.85 196.085 70.95C195.885 72.95 195.685 74.4 195.485 75.3H148.235L147.935 58.5H174.635C174.635 55.6 173.885 53.1 172.385 51C170.985 48.8 168.335 47.7 164.435 47.7C162.235 47.7 160.135 48.3 158.135 49.5C156.135 50.7 154.485 52.75 153.185 55.65C151.885 58.55 151.235 62.5 151.235 67.5C151.235 72.8 152.185 76.9 154.085 79.8C155.985 82.6 158.385 84.55 161.285 85.65C164.185 86.75 167.135 87.3 170.135 87.3C172.735 87.3 175.235 86.95 177.635 86.25C180.135 85.45 182.735 84.3 185.435 82.8L193.835 98.1C189.835 100.9 185.335 103.05 180.335 104.55C175.335 106.05 170.735 106.8 166.535 106.8ZM240.761 106.8C234.661 106.8 228.311 105.65 221.711 103.35C215.111 101.05 209.161 97.55 203.861 92.85L218.561 75.15C222.061 77.95 225.811 80.25 229.811 82.05C233.911 83.75 237.761 84.6 241.361 84.6C245.261 84.6 248.061 84 249.761 82.8C251.561 81.6 252.461 79.9 252.461 77.7C252.461 76.1 251.911 74.85 250.811 73.95C249.811 72.95 248.311 72.05 246.311 71.25C244.411 70.35 242.061 69.35 239.261 68.25L227.111 63.15C223.611 61.75 220.361 59.85 217.361 57.45C214.361 54.95 211.961 51.95 210.161 48.45C208.361 44.85 207.461 40.7 207.461 36C207.461 30.4 209.011 25.35 212.111 20.85C215.211 16.25 219.461 12.6 224.861 9.9C230.361 7.09999 236.661 5.69999 243.761 5.69999C249.361 5.69999 255.011 6.79999 260.711 8.99999C266.511 11.1 271.661 14.35 276.161 18.75L263.261 34.95C259.961 32.65 256.761 30.9 253.661 29.7C250.661 28.5 247.361 27.9 243.761 27.9C240.661 27.9 238.161 28.45 236.261 29.55C234.461 30.65 233.561 32.3 233.561 34.5C233.561 36 234.111 37.3 235.211 38.4C236.411 39.4 238.111 40.35 240.311 41.25C242.511 42.05 245.061 43.05 247.961 44.25L259.811 48.9C263.911 50.5 267.361 52.55 270.161 55.05C272.961 57.45 275.111 60.35 276.611 63.75C278.111 67.15 278.861 71.1 278.861 75.6C278.861 81.1 277.361 86.25 274.361 91.05C271.461 95.75 267.161 99.55 261.461 102.45C255.761 105.35 248.861 106.8 240.761 106.8ZM327.229 106.8C319.929 106.8 313.329 105.25 307.429 102.15C301.629 99.05 297.029 94.6 293.629 88.8C290.229 82.9 288.529 75.8 288.529 67.5C288.529 59.4 290.229 52.45 293.629 46.65C297.129 40.75 301.629 36.2 307.129 33C312.629 29.8 318.429 28.2 324.529 28.2C331.929 28.2 338.029 29.85 342.829 33.15C347.729 36.35 351.329 40.7 353.629 46.2C356.029 51.7 357.229 57.8 357.229 64.5C357.229 66.7 357.079 68.85 356.779 70.95C356.579 72.95 356.379 74.4 356.179 75.3H308.929L308.629 58.5H335.329C335.329 55.6 334.579 53.1 333.079 51C331.679 48.8 329.029 47.7 325.129 47.7C322.929 47.7 320.829 48.3 318.829 49.5C316.829 50.7 315.179 52.75 313.879 55.65C312.579 58.55 311.929 62.5 311.929 67.5C311.929 72.8 312.879 76.9 314.779 79.8C316.679 82.6 319.079 84.55 321.979 85.65C324.879 86.75 327.829 87.3 330.829 87.3C333.429 87.3 335.929 86.95 338.329 86.25C340.829 85.45 343.429 84.3 346.129 82.8L354.529 98.1C350.529 100.9 346.029 103.05 341.029 104.55C336.029 106.05 331.429 106.8 327.229 106.8ZM371.384 105V30H392.384L394.184 39H394.784C397.784 36.1 401.184 33.6 404.984 31.5C408.884 29.3 413.384 28.2 418.484 28.2C426.784 28.2 432.734 31 436.334 36.6C440.034 42.1 441.884 49.5 441.884 58.8V105H416.084V62.1C416.084 57.3 415.484 54.1 414.284 52.5C413.084 50.9 411.184 50.1 408.584 50.1C406.184 50.1 404.184 50.6 402.584 51.6C400.984 52.6 399.184 54 397.184 55.8V105H371.384ZM485.988 106.8C476.688 106.8 469.238 103.3 463.638 96.3C458.138 89.2 455.388 79.6 455.388 67.5C455.388 59.3 456.838 52.3 459.738 46.5C462.738 40.6 466.588 36.1 471.288 33C475.988 29.8 480.888 28.2 485.988 28.2C490.088 28.2 493.438 28.9 496.038 30.3C498.738 31.6 501.188 33.4 503.388 35.7L502.488 24.9V0.599994H528.288V105H507.288L505.488 98.1H504.888C502.388 100.6 499.438 102.7 496.038 104.4C492.638 106 489.288 106.8 485.988 106.8ZM492.888 85.8C494.888 85.8 496.638 85.45 498.138 84.75C499.738 83.95 501.188 82.5 502.488 80.4V52.8C500.988 51.4 499.338 50.45 497.538 49.95C495.738 49.45 493.988 49.2 492.288 49.2C490.488 49.2 488.788 49.8 487.188 51C485.588 52.1 484.288 54 483.288 56.7C482.288 59.3 481.788 62.8 481.788 67.2C481.788 73.9 482.788 78.7 484.788 81.6C486.788 84.4 489.488 85.8 492.888 85.8Z" fill="white"/>
</svg>
