<svg width="28" height="28" viewBox="0 0 28 28" fill="none" xmlns="http://www.w3.org/2000/svg">
<g style="mix-blend-mode:multiply">
<rect width="28" height="28" fill="white"/>
<path d="M11.6665 17.5L11.6665 14" stroke="black" strokeOpacity="0.2" strokeLinecap="round"/>
<path d="M16.3335 17.5L16.3335 14" stroke="black" strokeOpacity="0.2" strokeLinecap="round"/>
<path d="M3.5 8.16675H24.5V8.16675C23.0955 8.16675 22.3933 8.16675 21.8889 8.50381C21.6705 8.64973 21.483 8.83723 21.3371 9.05561C21 9.56005 21 10.2623 21 11.6667V19.3334C21 21.219 21 22.1618 20.4142 22.7476C19.8284 23.3334 18.8856 23.3334 17 23.3334H11C9.11438 23.3334 8.17157 23.3334 7.58579 22.7476C7 22.1618 7 21.219 7 19.3334V11.6668C7 10.2623 7 9.56005 6.66294 9.05561C6.51702 8.83723 6.32952 8.64973 6.11114 8.50381C5.60669 8.16675 4.90446 8.16675 3.5 8.16675V8.16675Z" stroke="black" strokeOpacity="0.4" strokeLinecap="round"/>
<path d="M11.7463 3.93236C11.8793 3.80832 12.1722 3.69872 12.5797 3.62054C12.9872 3.54237 13.4865 3.5 14.0002 3.5C14.5138 3.5 15.0131 3.54237 15.4206 3.62054C15.8281 3.69872 16.121 3.80832 16.254 3.93236" stroke="black" strokeOpacity="0.2" strokeLinecap="round"/>
</g>
</svg>
